<mxfile host="app.diagrams.net" agent="Mozilla/5.0 (Windows NT 10.0; Win64; x64) AppleWebKit/537.36 (KHTML, like Gecko) Chrome/134.0.0.0 Safari/537.36" version="26.1.1">
  <diagram name="Sida-1" id="q7HEUGY4x7_JFMNKG1ec">
    <mxGraphModel dx="2954" dy="1098" grid="1" gridSize="10" guides="1" tooltips="1" connect="1" arrows="1" fold="1" page="1" pageScale="1" pageWidth="827" pageHeight="1169" math="0" shadow="0">
      <root>
        <mxCell id="0" />
        <mxCell id="1" parent="0" />
        <mxCell id="AQREi9RD8hhco8yujr71-33" value="" style="rounded=1;whiteSpace=wrap;html=1;fillColor=none;dashed=1;" parent="1" vertex="1">
          <mxGeometry x="40" y="120" width="700" height="520" as="geometry" />
        </mxCell>
        <mxCell id="AQREi9RD8hhco8yujr71-36" value="" style="rounded=1;whiteSpace=wrap;html=1;fillColor=none;dashed=1;" parent="1" vertex="1">
          <mxGeometry x="850" y="120" width="670" height="560" as="geometry" />
        </mxCell>
        <mxCell id="AQREi9RD8hhco8yujr71-1" value="&lt;font style=&quot;font-weight: bold; font-size: 24px;&quot;&gt;Integration Model &lt;/font&gt;&lt;font style=&quot;font-size: 14px;&quot;&gt;(how tables are related)&lt;/font&gt;" style="text;html=1;align=center;verticalAlign=middle;whiteSpace=wrap;rounded=0;" parent="1" vertex="1">
          <mxGeometry x="10" y="40" width="390" height="50" as="geometry" />
        </mxCell>
        <mxCell id="AQREi9RD8hhco8yujr71-2" value="&lt;font style=&quot;font-size: 26px;&quot;&gt;crm_cust_info&lt;/font&gt;" style="swimlane;fontStyle=0;childLayout=stackLayout;horizontal=1;startSize=30;horizontalStack=0;resizeParent=1;resizeParentMax=0;resizeLast=0;collapsible=1;marginBottom=0;whiteSpace=wrap;html=1;rounded=1;fillColor=#dae8fc;strokeColor=#6c8ebf;" parent="1" vertex="1">
          <mxGeometry x="461.5" y="470" width="240" height="135" as="geometry" />
        </mxCell>
        <mxCell id="AQREi9RD8hhco8yujr71-3" value="cst_id" style="text;strokeColor=none;fillColor=none;align=left;verticalAlign=middle;spacingLeft=4;spacingRight=4;overflow=hidden;points=[[0,0.5],[1,0.5]];portConstraint=eastwest;rotatable=0;whiteSpace=wrap;html=1;fontSize=26;" parent="AQREi9RD8hhco8yujr71-2" vertex="1">
          <mxGeometry y="30" width="240" height="40" as="geometry" />
        </mxCell>
        <mxCell id="AQREi9RD8hhco8yujr71-22" value="cst_key" style="text;strokeColor=none;fillColor=none;align=left;verticalAlign=middle;spacingLeft=4;spacingRight=4;overflow=hidden;points=[[0,0.5],[1,0.5]];portConstraint=eastwest;rotatable=0;whiteSpace=wrap;html=1;fontSize=26;" parent="AQREi9RD8hhco8yujr71-2" vertex="1">
          <mxGeometry y="70" width="240" height="40" as="geometry" />
        </mxCell>
        <mxCell id="efc85xS4dO0CGPKBbxTN-3" value="&lt;b&gt;CUSTOMER&lt;/b&gt;" style="text;html=1;strokeColor=#82b366;fillColor=#d5e8d4;align=center;verticalAlign=middle;whiteSpace=wrap;overflow=hidden;fontSize=20;rounded=0;" vertex="1" parent="AQREi9RD8hhco8yujr71-2">
          <mxGeometry y="110" width="240" height="25" as="geometry" />
        </mxCell>
        <mxCell id="AQREi9RD8hhco8yujr71-6" value="&lt;font style=&quot;font-size: 18px;&quot;&gt;Customer Information&lt;/font&gt;" style="text;html=1;align=center;verticalAlign=middle;whiteSpace=wrap;rounded=0;" parent="1" vertex="1">
          <mxGeometry x="481.5" y="440" width="210" height="30" as="geometry" />
        </mxCell>
        <mxCell id="AQREi9RD8hhco8yujr71-7" value="&lt;span style=&quot;font-size: 26px;&quot;&gt;crm_prd_info&lt;/span&gt;" style="swimlane;fontStyle=0;childLayout=stackLayout;horizontal=1;startSize=30;horizontalStack=0;resizeParent=1;resizeParentMax=0;resizeLast=0;collapsible=1;marginBottom=0;whiteSpace=wrap;html=1;rounded=1;fillColor=#dae8fc;strokeColor=#6c8ebf;" parent="1" vertex="1">
          <mxGeometry x="461.5" y="240" width="240" height="95" as="geometry" />
        </mxCell>
        <mxCell id="AQREi9RD8hhco8yujr71-8" value="prd_key" style="text;strokeColor=none;fillColor=none;align=left;verticalAlign=middle;spacingLeft=4;spacingRight=4;overflow=hidden;points=[[0,0.5],[1,0.5]];portConstraint=eastwest;rotatable=0;whiteSpace=wrap;html=1;fontSize=26;" parent="AQREi9RD8hhco8yujr71-7" vertex="1">
          <mxGeometry y="30" width="240" height="40" as="geometry" />
        </mxCell>
        <mxCell id="efc85xS4dO0CGPKBbxTN-1" value="&lt;b&gt;PRODUCT&lt;/b&gt;" style="text;html=1;strokeColor=#b85450;fillColor=#f8cecc;align=center;verticalAlign=middle;whiteSpace=wrap;overflow=hidden;fontSize=20;rounded=0;" vertex="1" parent="AQREi9RD8hhco8yujr71-7">
          <mxGeometry y="70" width="240" height="25" as="geometry" />
        </mxCell>
        <mxCell id="AQREi9RD8hhco8yujr71-9" value="&lt;font style=&quot;font-size: 18px;&quot;&gt;Current &amp;amp; History Product information&amp;nbsp;&lt;/font&gt;" style="text;html=1;align=center;verticalAlign=middle;whiteSpace=wrap;rounded=0;" parent="1" vertex="1">
          <mxGeometry x="414" y="200" width="335" height="30" as="geometry" />
        </mxCell>
        <mxCell id="AQREi9RD8hhco8yujr71-10" value="&lt;span style=&quot;font-size: 26px;&quot;&gt;crm_sales_details&lt;/span&gt;" style="swimlane;fontStyle=0;childLayout=stackLayout;horizontal=1;startSize=30;horizontalStack=0;resizeParent=1;resizeParentMax=0;resizeLast=0;collapsible=1;marginBottom=0;whiteSpace=wrap;html=1;rounded=1;fillColor=#dae8fc;strokeColor=#6c8ebf;" parent="1" vertex="1">
          <mxGeometry x="97.5" y="340" width="240" height="135" as="geometry" />
        </mxCell>
        <mxCell id="AQREi9RD8hhco8yujr71-11" value="prd_key" style="text;strokeColor=none;fillColor=none;align=left;verticalAlign=middle;spacingLeft=4;spacingRight=4;overflow=hidden;points=[[0,0.5],[1,0.5]];portConstraint=eastwest;rotatable=0;whiteSpace=wrap;html=1;fontSize=26;" parent="AQREi9RD8hhco8yujr71-10" vertex="1">
          <mxGeometry y="30" width="240" height="40" as="geometry" />
        </mxCell>
        <mxCell id="AQREi9RD8hhco8yujr71-15" value="cst_id" style="text;strokeColor=none;fillColor=none;align=left;verticalAlign=middle;spacingLeft=4;spacingRight=4;overflow=hidden;points=[[0,0.5],[1,0.5]];portConstraint=eastwest;rotatable=0;whiteSpace=wrap;html=1;fontSize=26;" parent="AQREi9RD8hhco8yujr71-10" vertex="1">
          <mxGeometry y="70" width="240" height="40" as="geometry" />
        </mxCell>
        <mxCell id="efc85xS4dO0CGPKBbxTN-7" value="&lt;b&gt;SALES&lt;/b&gt;" style="text;html=1;strokeColor=#9673a6;fillColor=#e1d5e7;align=center;verticalAlign=middle;whiteSpace=wrap;overflow=hidden;fontSize=20;rounded=0;" vertex="1" parent="AQREi9RD8hhco8yujr71-10">
          <mxGeometry y="110" width="240" height="25" as="geometry" />
        </mxCell>
        <mxCell id="AQREi9RD8hhco8yujr71-12" value="&lt;font style=&quot;font-size: 18px;&quot;&gt;Transactional Records about Sales &amp;amp; Orders&lt;/font&gt;" style="text;html=1;align=center;verticalAlign=middle;whiteSpace=wrap;rounded=0;" parent="1" vertex="1">
          <mxGeometry x="50" y="300" width="335" height="30" as="geometry" />
        </mxCell>
        <mxCell id="AQREi9RD8hhco8yujr71-17" style="edgeStyle=orthogonalEdgeStyle;rounded=0;orthogonalLoop=1;jettySize=auto;html=1;entryX=0;entryY=0.5;entryDx=0;entryDy=0;" parent="1" source="AQREi9RD8hhco8yujr71-15" target="AQREi9RD8hhco8yujr71-3" edge="1">
          <mxGeometry relative="1" as="geometry" />
        </mxCell>
        <mxCell id="AQREi9RD8hhco8yujr71-18" style="edgeStyle=orthogonalEdgeStyle;rounded=0;orthogonalLoop=1;jettySize=auto;html=1;" parent="1" source="AQREi9RD8hhco8yujr71-11" target="AQREi9RD8hhco8yujr71-8" edge="1">
          <mxGeometry relative="1" as="geometry" />
        </mxCell>
        <mxCell id="AQREi9RD8hhco8yujr71-19" value="&lt;span style=&quot;font-size: 26px;&quot;&gt;erp_cust_az12&lt;/span&gt;" style="swimlane;fontStyle=0;childLayout=stackLayout;horizontal=1;startSize=30;horizontalStack=0;resizeParent=1;resizeParentMax=0;resizeLast=0;collapsible=1;marginBottom=0;whiteSpace=wrap;html=1;rounded=1;fillColor=#fff2cc;strokeColor=#d6b656;" parent="1" vertex="1">
          <mxGeometry x="1205" y="340" width="240" height="95" as="geometry" />
        </mxCell>
        <mxCell id="AQREi9RD8hhco8yujr71-20" value="cid" style="text;strokeColor=none;fillColor=none;align=left;verticalAlign=middle;spacingLeft=4;spacingRight=4;overflow=hidden;points=[[0,0.5],[1,0.5]];portConstraint=eastwest;rotatable=0;whiteSpace=wrap;html=1;fontSize=26;" parent="AQREi9RD8hhco8yujr71-19" vertex="1">
          <mxGeometry y="30" width="240" height="40" as="geometry" />
        </mxCell>
        <mxCell id="efc85xS4dO0CGPKBbxTN-4" value="&lt;b&gt;CUSTOMER&lt;/b&gt;" style="text;html=1;strokeColor=#82b366;fillColor=#d5e8d4;align=center;verticalAlign=middle;whiteSpace=wrap;overflow=hidden;fontSize=20;rounded=0;" vertex="1" parent="AQREi9RD8hhco8yujr71-19">
          <mxGeometry y="70" width="240" height="25" as="geometry" />
        </mxCell>
        <mxCell id="AQREi9RD8hhco8yujr71-21" value="&lt;font style=&quot;font-size: 18px;&quot;&gt;Extra Customer Information (Birthdate)&lt;/font&gt;" style="text;html=1;align=center;verticalAlign=middle;whiteSpace=wrap;rounded=0;" parent="1" vertex="1">
          <mxGeometry x="1215" y="300" width="230" height="30" as="geometry" />
        </mxCell>
        <mxCell id="AQREi9RD8hhco8yujr71-24" style="edgeStyle=orthogonalEdgeStyle;rounded=0;orthogonalLoop=1;jettySize=auto;html=1;entryX=1;entryY=0.5;entryDx=0;entryDy=0;" parent="1" source="AQREi9RD8hhco8yujr71-20" target="AQREi9RD8hhco8yujr71-22" edge="1">
          <mxGeometry relative="1" as="geometry" />
        </mxCell>
        <mxCell id="AQREi9RD8hhco8yujr71-25" value="&lt;span style=&quot;font-size: 26px;&quot;&gt;erp_loc_a101&lt;/span&gt;" style="swimlane;fontStyle=0;childLayout=stackLayout;horizontal=1;startSize=30;horizontalStack=0;resizeParent=1;resizeParentMax=0;resizeLast=0;collapsible=1;marginBottom=0;whiteSpace=wrap;html=1;rounded=1;fillColor=#fff2cc;strokeColor=#d6b656;" parent="1" vertex="1">
          <mxGeometry x="1205" y="555" width="240" height="95" as="geometry" />
        </mxCell>
        <mxCell id="AQREi9RD8hhco8yujr71-26" value="cid" style="text;strokeColor=none;fillColor=none;align=left;verticalAlign=middle;spacingLeft=4;spacingRight=4;overflow=hidden;points=[[0,0.5],[1,0.5]];portConstraint=eastwest;rotatable=0;whiteSpace=wrap;html=1;fontSize=26;" parent="AQREi9RD8hhco8yujr71-25" vertex="1">
          <mxGeometry y="30" width="240" height="40" as="geometry" />
        </mxCell>
        <mxCell id="efc85xS4dO0CGPKBbxTN-5" value="&lt;b&gt;CUSTOMER&lt;/b&gt;" style="text;html=1;strokeColor=#82b366;fillColor=#d5e8d4;align=center;verticalAlign=middle;whiteSpace=wrap;overflow=hidden;fontSize=20;rounded=0;" vertex="1" parent="AQREi9RD8hhco8yujr71-25">
          <mxGeometry y="70" width="240" height="25" as="geometry" />
        </mxCell>
        <mxCell id="AQREi9RD8hhco8yujr71-27" value="&lt;span style=&quot;font-size: 18px;&quot;&gt;Location of Customers (Country)&lt;/span&gt;" style="text;html=1;align=center;verticalAlign=middle;whiteSpace=wrap;rounded=0;" parent="1" vertex="1">
          <mxGeometry x="1225" y="505" width="210" height="50" as="geometry" />
        </mxCell>
        <mxCell id="AQREi9RD8hhco8yujr71-28" value="&lt;span style=&quot;font-size: 26px;&quot;&gt;erp_px_cat_g1v2&lt;/span&gt;" style="swimlane;fontStyle=0;childLayout=stackLayout;horizontal=1;startSize=30;horizontalStack=0;resizeParent=1;resizeParentMax=0;resizeLast=0;collapsible=1;marginBottom=0;whiteSpace=wrap;html=1;rounded=1;fillColor=#fff2cc;strokeColor=#d6b656;" parent="1" vertex="1">
          <mxGeometry x="1205" y="195" width="240" height="95" as="geometry" />
        </mxCell>
        <mxCell id="AQREi9RD8hhco8yujr71-29" value="id" style="text;strokeColor=none;fillColor=none;align=left;verticalAlign=middle;spacingLeft=4;spacingRight=4;overflow=hidden;points=[[0,0.5],[1,0.5]];portConstraint=eastwest;rotatable=0;whiteSpace=wrap;html=1;fontSize=26;" parent="AQREi9RD8hhco8yujr71-28" vertex="1">
          <mxGeometry y="30" width="240" height="40" as="geometry" />
        </mxCell>
        <mxCell id="efc85xS4dO0CGPKBbxTN-2" value="&lt;b&gt;PRODUCT&lt;/b&gt;" style="text;html=1;strokeColor=#b85450;fillColor=#f8cecc;align=center;verticalAlign=middle;whiteSpace=wrap;overflow=hidden;fontSize=20;rounded=0;" vertex="1" parent="AQREi9RD8hhco8yujr71-28">
          <mxGeometry y="70" width="240" height="25" as="geometry" />
        </mxCell>
        <mxCell id="AQREi9RD8hhco8yujr71-30" value="&lt;font style=&quot;font-size: 18px;&quot;&gt;Customer Information&lt;/font&gt;" style="text;html=1;align=center;verticalAlign=middle;whiteSpace=wrap;rounded=0;" parent="1" vertex="1">
          <mxGeometry x="1225" y="165" width="210" height="30" as="geometry" />
        </mxCell>
        <mxCell id="AQREi9RD8hhco8yujr71-31" style="edgeStyle=orthogonalEdgeStyle;rounded=0;orthogonalLoop=1;jettySize=auto;html=1;entryX=1;entryY=0.5;entryDx=0;entryDy=0;" parent="1" source="AQREi9RD8hhco8yujr71-26" target="AQREi9RD8hhco8yujr71-22" edge="1">
          <mxGeometry relative="1" as="geometry" />
        </mxCell>
        <mxCell id="AQREi9RD8hhco8yujr71-32" style="edgeStyle=orthogonalEdgeStyle;rounded=0;orthogonalLoop=1;jettySize=auto;html=1;" parent="1" source="AQREi9RD8hhco8yujr71-29" target="AQREi9RD8hhco8yujr71-8" edge="1">
          <mxGeometry relative="1" as="geometry" />
        </mxCell>
        <mxCell id="AQREi9RD8hhco8yujr71-34" value="&lt;font style=&quot;font-size: 40px;&quot;&gt;CRM&lt;/font&gt;" style="rounded=1;whiteSpace=wrap;html=1;fillColor=#dae8fc;strokeColor=#6c8ebf;" parent="1" vertex="1">
          <mxGeometry x="255" y="90" width="270" height="60" as="geometry" />
        </mxCell>
        <mxCell id="AQREi9RD8hhco8yujr71-35" value="&lt;span style=&quot;font-size: 40px;&quot;&gt;ERP&lt;/span&gt;" style="rounded=1;whiteSpace=wrap;html=1;fillColor=#fff2cc;strokeColor=#d6b656;" parent="1" vertex="1">
          <mxGeometry x="1055" y="90" width="270" height="60" as="geometry" />
        </mxCell>
      </root>
    </mxGraphModel>
  </diagram>
</mxfile>
